<svg width="46" height="46" viewBox="0 0 46 46" fill="none" xmlns="http://www.w3.org/2000/svg">
<path d="M16.7376 1.0957L19.8681 6.57174L16.7376 12.0478H41.7821L38.6515 17.5216H14.2327L10.7871 11.4993L16.7376 1.0957Z" fill="white"/>
<path d="M4.21582 12.0464H10.4769L22.6842 33.4042L19.2408 39.4287L7.34639 39.4243L10.4769 33.9483L16.7381 33.9505L4.21582 12.0464Z" fill="white"/>
<path d="M19.8643 39.4242L22.9948 44.9002L35.5171 22.9983L38.6455 28.4744H44.9088L38.9627 18.0708L32.0759 18.073L19.8643 39.4242Z" fill="white"/>
<path d="M16.7376 1.0957L19.8681 6.57174L16.7376 12.0478H41.7821L38.6515 17.5216H14.2327L10.7871 11.4993L16.7376 1.0957Z" fill="url(#paint0_linear_721_37)"/>
<path d="M7.34639 39.4263L10.4769 33.9503H16.7381L4.21582 12.0483H10.4748L22.6842 33.404L19.2408 39.4284L7.34639 39.4263Z" fill="url(#paint1_linear_721_37)"/>
<path d="M44.9117 28.4744H38.6484L35.52 22.9983L22.9978 44.9025L19.8672 39.4286L32.0766 18.073L38.9634 18.0708L44.9117 28.4744Z" fill="url(#paint2_linear_721_37)"/>
<path d="M45.8484 27.9264L40.5278 18.6198L39.9023 17.5228L42.72 12.5975C42.8179 12.4286 42.8655 12.2399 42.8655 12.049C42.8655 11.8581 42.8179 11.6695 42.72 11.5005L39.5893 6.02449C39.4918 5.85556 39.3546 5.71954 39.1917 5.62302C39.0311 5.52869 38.8421 5.47601 38.6486 5.47601H26.7521L23.9344 0.548482C23.741 0.210617 23.3826 0 22.9959 0H16.7347C16.5414 0 16.3546 0.0526545 16.1938 0.146993C16.0308 0.241332 15.894 0.379549 15.7962 0.548482L10.4736 9.85728L9.84791 10.9499H4.21247C4.01911 10.9499 3.83228 11.0025 3.67152 11.0968C3.50858 11.1912 3.36953 11.3294 3.27394 11.4983L0.145558 16.9744C0.0477954 17.1433 0 17.332 0 17.5228C0 17.7137 0.0477954 17.9024 0.145558 18.0713L6.09384 28.4749L3.27613 33.4023C3.17836 33.5713 3.13057 33.76 3.13057 33.9509C3.13057 34.1418 3.17836 34.3305 3.27613 34.4995L6.40668 39.9753C6.50446 40.1443 6.64132 40.2805 6.80426 40.3768C6.9672 40.4711 7.15403 40.5239 7.34739 40.5239H19.2418L22.0595 45.4514C22.2529 45.7894 22.6113 45.9977 22.998 46H29.2592C29.4525 46 29.6394 45.9472 29.8023 45.8529C29.9631 45.7585 30.1021 45.6204 30.1999 45.4514L36.1483 35.0478H41.7838C41.9769 35.0478 42.1637 34.9953 42.3269 34.901C42.4875 34.8066 42.6266 34.6682 42.7242 34.4995L45.8549 29.0234C45.9527 28.8544 46.0004 28.6657 46.0004 28.4749C46.0004 28.284 45.9527 28.0953 45.8549 27.9264H45.8484ZM16.7369 1.09696L19.8675 6.57297L16.7369 12.0468H41.7815L38.6508 17.5206H14.232L10.7864 11.4983L16.7369 1.09696ZM19.2396 39.4293L7.34521 39.4247L10.4758 33.9486H16.7369L4.21463 12.0468H10.4758L13.6063 17.5228L22.683 33.4045L19.2396 39.4293ZM38.6466 28.4749L35.5182 22.9989L22.9959 44.9009L19.8653 39.4247L22.998 33.9509L32.0769 18.0735H38.9638L44.9099 28.4749H38.6466Z" fill="url(#paint3_linear_721_37)"/>
<path d="M45.8484 27.9264L40.5278 18.6198L39.9023 17.5228L42.72 12.5975C42.8179 12.4286 42.8655 12.2399 42.8655 12.049C42.8655 11.8581 42.8179 11.6695 42.72 11.5005L39.5893 6.02449C39.4918 5.85556 39.3546 5.71954 39.1917 5.62302C39.0311 5.52869 38.8421 5.47601 38.6486 5.47601H26.7521L23.9344 0.548482C23.741 0.210617 23.3826 0 22.9959 0H16.7347C16.5414 0 16.3546 0.0526545 16.1938 0.146993C16.0308 0.241332 15.894 0.379549 15.7962 0.548482L10.4736 9.85728L9.84791 10.9499H4.21247C4.01911 10.9499 3.83228 11.0025 3.67152 11.0968C3.50858 11.1912 3.36953 11.3294 3.27394 11.4983L0.145558 16.9744C0.0477954 17.1433 0 17.332 0 17.5228C0 17.7137 0.0477954 17.9024 0.145558 18.0713L6.09384 28.4749L3.27613 33.4023C3.17836 33.5713 3.13057 33.76 3.13057 33.9509C3.13057 34.1418 3.17836 34.3305 3.27613 34.4995L6.40668 39.9753C6.50446 40.1443 6.64132 40.2805 6.80426 40.3768C6.9672 40.4711 7.15403 40.5239 7.34739 40.5239H19.2418L22.0595 45.4514C22.2529 45.7894 22.6113 45.9977 22.998 46H29.2592C29.4525 46 29.6394 45.9472 29.8023 45.8529C29.9631 45.7585 30.1021 45.6204 30.1999 45.4514L36.1483 35.0478H41.7838C41.9769 35.0478 42.1637 34.9953 42.3269 34.901C42.4875 34.8066 42.6266 34.6682 42.7242 34.4995L45.8549 29.0234C45.9527 28.8544 46.0004 28.6657 46.0004 28.4749C46.0004 28.284 45.9527 28.0953 45.8549 27.9264H45.8484ZM16.7369 1.09696L19.8675 6.57297L16.7369 12.0468H41.7815L38.6508 17.5206H14.232L10.7864 11.4983L16.7369 1.09696ZM19.2396 39.4293L7.34521 39.4247L10.4758 33.9486H16.7369L4.21463 12.0468H10.4758L13.6063 17.5228L22.683 33.4045L19.2396 39.4293ZM38.6466 28.4749L35.5182 22.9989L22.9959 44.9009L19.8653 39.4247L22.998 33.9509L32.0769 18.0735H38.9638L44.9099 28.4749H38.6466Z" fill="url(#paint4_linear_721_37)"/>
<path d="M45.8484 27.9264L40.5278 18.6198L39.9023 17.5228L42.72 12.5975C42.8179 12.4286 42.8655 12.2399 42.8655 12.049C42.8655 11.8581 42.8179 11.6695 42.72 11.5005L39.5893 6.02449C39.4918 5.85556 39.3546 5.71954 39.1917 5.62302C39.0311 5.52869 38.8421 5.47601 38.6486 5.47601H26.7521L23.9344 0.548482C23.741 0.210617 23.3826 0 22.9959 0H16.7347C16.5414 0 16.3546 0.0526545 16.1938 0.146993C16.0308 0.241332 15.894 0.379549 15.7962 0.548482L10.4736 9.85728L9.84791 10.9499H4.21247C4.01911 10.9499 3.83228 11.0025 3.67152 11.0968C3.50858 11.1912 3.36953 11.3294 3.27394 11.4983L0.145558 16.9744C0.0477954 17.1433 0 17.332 0 17.5228C0 17.7137 0.0477954 17.9024 0.145558 18.0713L6.09384 28.4749L3.27613 33.4023C3.17836 33.5713 3.13057 33.76 3.13057 33.9509C3.13057 34.1418 3.17836 34.3305 3.27613 34.4995L6.40668 39.9753C6.50446 40.1443 6.64132 40.2805 6.80426 40.3768C6.9672 40.4711 7.15403 40.5239 7.34739 40.5239H19.2418L22.0595 45.4514C22.2529 45.7894 22.6113 45.9977 22.998 46H29.2592C29.4525 46 29.6394 45.9472 29.8023 45.8529C29.9631 45.7585 30.1021 45.6204 30.1999 45.4514L36.1483 35.0478H41.7838C41.9769 35.0478 42.1637 34.9953 42.3269 34.901C42.4875 34.8066 42.6266 34.6682 42.7242 34.4995L45.8549 29.0234C45.9527 28.8544 46.0004 28.6657 46.0004 28.4749C46.0004 28.284 45.9527 28.0953 45.8549 27.9264H45.8484ZM16.7369 1.09696L19.8675 6.57297L16.7369 12.0468H41.7815L38.6508 17.5206H14.232L10.7864 11.4983L16.7369 1.09696ZM19.2396 39.4293L7.34521 39.4247L10.4758 33.9486H16.7369L4.21463 12.0468H10.4758L13.6063 17.5228L22.683 33.4045L19.2396 39.4293ZM38.6466 28.4749L35.5182 22.9989L22.9959 44.9009L19.8653 39.4247L22.998 33.9509L32.0769 18.0735H38.9638L44.9099 28.4749H38.6466Z" fill="url(#paint5_linear_721_37)"/>
<defs>
<linearGradient id="paint0_linear_721_37" x1="14.0763" y1="17.2495" x2="37.0852" y2="3.8337" gradientUnits="userSpaceOnUse">
<stop stop-color="#6964ED" stop-opacity="0.53"/>
<stop offset="0.01" stop-color="#8884F1" stop-opacity="0.62"/>
<stop offset="0.03" stop-color="#A4A2F4" stop-opacity="0.72"/>
<stop offset="0.04" stop-color="#BDBBF7" stop-opacity="0.79"/>
<stop offset="0.06" stop-color="#D2D0F9" stop-opacity="0.86"/>
<stop offset="0.07" stop-color="#E2E1FB" stop-opacity="0.91"/>
<stop offset="0.09" stop-color="#EFEFFD" stop-opacity="0.95"/>
<stop offset="0.12" stop-color="#F8F8FE" stop-opacity="0.98"/>
<stop offset="0.15" stop-color="#FDFDFE"/>
<stop offset="0.25" stop-color="white"/>
</linearGradient>
<linearGradient id="paint1_linear_721_37" x1="22.529" y1="33.6789" x2="-0.478598" y2="20.2629" gradientUnits="userSpaceOnUse">
<stop stop-color="#6964ED" stop-opacity="0.53"/>
<stop offset="0.01" stop-color="#8884F1" stop-opacity="0.62"/>
<stop offset="0.03" stop-color="#A4A2F4" stop-opacity="0.72"/>
<stop offset="0.04" stop-color="#BDBBF7" stop-opacity="0.79"/>
<stop offset="0.06" stop-color="#D2D0F9" stop-opacity="0.86"/>
<stop offset="0.07" stop-color="#E2E1FB" stop-opacity="0.91"/>
<stop offset="0.09" stop-color="#EFEFFD" stop-opacity="0.95"/>
<stop offset="0.12" stop-color="#F8F8FE" stop-opacity="0.98"/>
<stop offset="0.15" stop-color="#FDFDFE"/>
<stop offset="0.25" stop-color="white"/>
</linearGradient>
<linearGradient id="paint2_linear_721_37" x1="32.3895" y1="18.0708" x2="32.3895" y2="44.9025" gradientUnits="userSpaceOnUse">
<stop stop-color="#6964ED" stop-opacity="0.53"/>
<stop offset="0.01" stop-color="#8884F1" stop-opacity="0.62"/>
<stop offset="0.03" stop-color="#A4A2F4" stop-opacity="0.72"/>
<stop offset="0.04" stop-color="#BDBBF7" stop-opacity="0.79"/>
<stop offset="0.06" stop-color="#D2D0F9" stop-opacity="0.86"/>
<stop offset="0.07" stop-color="#E2E1FB" stop-opacity="0.91"/>
<stop offset="0.09" stop-color="#EFEFFD" stop-opacity="0.95"/>
<stop offset="0.12" stop-color="#F8F8FE" stop-opacity="0.98"/>
<stop offset="0.15" stop-color="#FDFDFE"/>
<stop offset="0.25" stop-color="white"/>
</linearGradient>
<linearGradient id="paint3_linear_721_37" x1="42.7199" y1="11.5005" x2="3.27606" y2="34.4972" gradientUnits="userSpaceOnUse">
<stop stop-color="#615CED"/>
<stop offset="0.17" stop-color="#6156EC"/>
<stop offset="0.38" stop-color="#6147E9"/>
<stop offset="0.61" stop-color="#622FE4"/>
<stop offset="0.62" stop-color="#632DE4"/>
</linearGradient>
<linearGradient id="paint4_linear_721_37" x1="0" y1="22.9989" x2="45.9939" y2="22.9989" gradientUnits="userSpaceOnUse">
<stop stop-color="#615CED"/>
<stop offset="0.04" stop-color="#615CED" stop-opacity="0.96"/>
<stop offset="0.09" stop-color="#615CED" stop-opacity="0.86"/>
<stop offset="0.17" stop-color="#615CED" stop-opacity="0.69"/>
<stop offset="0.25" stop-color="#615CED" stop-opacity="0.46"/>
<stop offset="0.35" stop-color="#615CED" stop-opacity="0.16"/>
<stop offset="0.4" stop-color="#615CED" stop-opacity="0"/>
</linearGradient>
<linearGradient id="paint5_linear_721_37" x1="34.4949" y1="2.8872" x2="11.4989" y2="43.1105" gradientUnits="userSpaceOnUse">
<stop stop-color="#A7A5F6"/>
<stop offset="0.05" stop-color="#9895F4" stop-opacity="0.79"/>
<stop offset="0.12" stop-color="#8784F1" stop-opacity="0.55"/>
<stop offset="0.19" stop-color="#7975F0" stop-opacity="0.35"/>
<stop offset="0.25" stop-color="#6F6AEE" stop-opacity="0.2"/>
<stop offset="0.31" stop-color="#6762ED" stop-opacity="0.09"/>
<stop offset="0.36" stop-color="#625DED" stop-opacity="0.02"/>
<stop offset="0.4" stop-color="#615CED" stop-opacity="0"/>
</linearGradient>
</defs>
</svg>
